HIERARCHY
ROOT Hips
{
    OFFSET 0.000000 0.000000 0.000000
    CHANNELS 6 Xposition Yposition Zposition Zrotation Xrotation Yrotation
    JOINT Spine
    {
        OFFSET -0.000000 14.517291 0.000000
        CHANNELS 3 Zrotation Xrotation Yrotation
        JOINT Spine1
        {
            OFFSET -0.000000 37.558300 0.000000
            CHANNELS 3 Zrotation Xrotation Yrotation
            JOINT Neck
            {
                OFFSET -0.000000 37.404057 3.400369
                CHANNELS 3 Zrotation Xrotation Yrotation
                JOINT Head
                {
                    OFFSET -0.000000 24.785618 -3.540803
                    CHANNELS 3 Zrotation Xrotation Yrotation
                    End Site
                    {
                        OFFSET -0.000000 35.408028 0.000000
                    }
                }
            }
            JOINT LeftShoulder
            {
                OFFSET 6.992933 33.973492 -0.192664
                CHANNELS 3 Zrotation Xrotation Yrotation
                JOINT LeftArm
                {
                    OFFSET 21.527611 0.000000 0.000000
                    CHANNELS 3 Zrotation Xrotation Yrotation
                    JOINT LeftForeArm
                    {
                        OFFSET 56.353916 0.000000 0.000000
                        CHANNELS 3 Zrotation Xrotation Yrotation
                        JOINT LeftHand
                        {
                            OFFSET 47.774071 0.000000 0.000000
                            CHANNELS 3 Zrotation Xrotation Yrotation
                            End Site
                            {
                                OFFSET 26.556021 0.000000 0.000000
                            }
                        }
                    }
                }
            }
            JOINT RightShoulder
            {
                OFFSET -7.065357 33.973492 -0.192664
                CHANNELS 3 Zrotation Xrotation Yrotation
                JOINT RightArm
                {
                    OFFSET -21.527611 0.000000 0.000000
                    CHANNELS 3 Zrotation Xrotation Yrotation
                    JOINT RightForeArm
                    {
                        OFFSET -56.353916 0.000000 0.000000
                        CHANNELS 3 Zrotation Xrotation Yrotation
                        JOINT RightHand
                        {
                            OFFSET -47.774071 0.000000 0.000000
                            CHANNELS 3 Zrotation Xrotation Yrotation
                            End Site
                            {
                                OFFSET -26.556021 0.000000 0.000000
                            }
                        }
                    }
                }
            }
        }
    }
    JOINT LeftUpLeg
    {
        OFFSET 17.704014 0.000000 0.000000
        CHANNELS 3 Zrotation Xrotation Yrotation
        JOINT LeftLeg
        {
            OFFSET -0.000000 -81.181816 0.000000
            CHANNELS 3 Zrotation Xrotation Yrotation
            JOINT LeftFoot
            {
                OFFSET -0.000000 -62.821102 0.000000
                CHANNELS 3 Zrotation Xrotation Yrotation
                JOINT LeftToeBase
                {
                    OFFSET -0.000000 -11.507608 26.556021
                    CHANNELS 3 Zrotation Xrotation Yrotation
                    End Site
                    {
                        OFFSET -0.000000 0.000000 7.081605
                    }
                }
            }
        }
    }
    JOINT RightUpLeg
    {
        OFFSET -17.704014 0.000000 0.000000
        CHANNELS 3 Zrotation Xrotation Yrotation
        JOINT RightLeg
        {
            OFFSET -0.000000 -81.181816 0.000000
            CHANNELS 3 Zrotation Xrotation Yrotation
            JOINT RightFoot
            {
                OFFSET -0.000000 -62.821102 0.000000
                CHANNELS 3 Zrotation Xrotation Yrotation
                JOINT RightToeBase
                {
                    OFFSET -0.000000 -11.507608 26.556021
                    CHANNELS 3 Zrotation Xrotation Yrotation
                    End Site
                    {
                        OFFSET -0.000000 0.000000 7.081605
                    }
                }
            }
        }
    }
}
MOTION
Frames:    4
Frame Time:    0.008333
-9.289607    151.378220    -13.549468    -0.151610    0.124826    23.085819    -2.555758    0.019099    6.832045    -3.461695    2.294021    2.347710    -5.148960    -6.271980    -14.092019    17.550779    6.646459    -12.171798    9.053727    -6.080593    -13.442122    -39.501205    -7.577711    -87.133423    12.991065    -62.818699    -117.230644    -22.618130    -47.043453    -30.562361    -12.144537    1.717792    7.970954    22.126978    -20.788530    55.630409    -7.927097    -20.967821    14.330763    11.835896    -15.782293    41.210602    1.346755    -34.044647    -27.539721    -10.493817    22.225714    -21.923820    -10.754154    3.593249    28.915077    0.000000    0.000000    0.000000    3.802388    11.807261    -13.926395    3.290679    24.381325    -0.952305    -3.820822    -31.697035    -6.988309    0.000000    0.000000    0.000000    
-9.303556    151.380920    -13.552290    -0.152849    0.127299    23.103632    -2.557078    0.021777    6.837345    -3.469516    2.280590    2.349203    -5.138130    -6.270751    -14.095565    17.536461    6.666304    -12.182089    9.039077    -6.064096    -13.447656    -39.516495    -7.575683    -87.181259    13.006122    -62.810307    -117.236900    -22.639545    -47.005032    -30.575979    -12.141027    1.719874    7.970786    22.126827    -20.802399    55.622448    -7.936471    -20.969366    14.294737    11.839674    -15.785623    41.194786    1.341828    -34.042511    -27.550177    -10.481866    22.207211    -21.938015    -10.760057    3.601472    28.918104    0.000000    0.000000    0.000000    3.809143    11.799089    -13.928753    3.295952    24.387569    -0.966246    -3.804574    -31.689079    -6.986883    0.000000    0.000000    0.000000    
-9.280316    151.388412    -13.549487    -0.133312    0.116932    23.113537    -2.523316    0.016730    6.849107    -3.530022    2.309509    2.355281    -5.125856    -6.275783    -14.085520    17.540735    6.673111    -12.174535    9.026385    -6.080269    -13.449898    -39.547199    -7.558775    -87.209442    12.915772    -62.765419    -117.335114    -22.696354    -47.001469    -30.591900    -12.133773    1.712163    7.966171    22.117535    -20.803057    55.617889    -7.961161    -20.967506    14.237671    11.843047    -15.783875    41.190353    1.307512    -34.002914    -27.588974    -10.469304    22.176006    -21.881029    -10.767766    3.607557    28.899010    0.000000    0.000000    0.000000    3.780303    11.829426    -13.931429    3.319686    24.370733    -0.976884    -3.819782    -31.677750    -6.970411    0.000000    0.000000    0.000000    
-9.331961    151.384460    -13.554271    -0.145301    0.132615    23.132010    -2.563575    0.016145    6.851498    -3.495322    2.289828    2.354760    -5.130631    -6.278878    -14.089550    17.552486    6.677485    -12.177343    9.009224    -6.081365    -13.457407    -39.568050    -7.563797    -87.236115    12.872646    -62.726734    -117.381714    -22.720221    -46.967308    -30.650805    -12.146258    1.709254    7.955360    22.126011    -20.798304    55.628273    -7.988868    -20.983438    14.183426    11.834567    -15.806468    41.166473    1.336111    -34.026211    -27.557575    -10.469632    22.154636    -21.907095    -10.777978    3.627415    28.884134    0.000000    0.000000    0.000000    3.818554    11.798590    -13.953667    3.297573    24.376301    -0.996334    -3.806731    -31.691336    -6.959066    0.000000    0.000000    0.000000    
